<?xml version="1.0" encoding="UTF-8"?>
<svg id="Layer_1" data-name="Layer 1" xmlns="http://www.w3.org/2000/svg" viewBox="0 0 3341.58 683.85">
  <defs>
    <style>
      .cls-1 {
        fill: #2a6bdd;
      }

      .cls-2 {
        fill: #fff;
      }

      .cls-3 {
        fill: #656767;
      }

      .cls-4 {
        fill: #474787;
      }
    </style>
  </defs>
  <path class="cls-4" d="M903.56,523.29v-262.69h69.57c12.03,0,21.78,9.75,21.78,21.78v240.91h-91.35Z"/>
  <path class="cls-4" d="M1035.77,523.29V161.81h94.24v361.49h-94.24ZM1120.88,443.25l-5.29-114.64,144.72-166.8h104.82l-144.24,167.83-52.89,59.39-47.12,54.22ZM1261.75,523.29l-109.62-149.24,62.02-71.26,158.18,220.51h-110.59Z"/>
  <path class="cls-4" d="M1526.64,530.52c-26.92,0-51.77-4.65-74.53-13.94-22.76-9.3-42.55-22.47-59.38-39.51-16.83-17.04-29.89-36.92-39.19-59.65-9.3-22.72-13.94-47.68-13.94-74.88s4.64-52.16,13.94-74.88c9.29-22.72,22.36-42.6,39.19-59.65,16.83-17.04,36.62-30.21,59.38-39.51,22.76-9.3,47.6-13.94,74.53-13.94s52.17,4.65,74.77,13.94c22.6,9.3,42.23,22.46,58.9,39.51,16.66,17.04,29.73,36.92,39.19,59.65,9.45,22.72,14.18,47.69,14.18,74.88s-4.73,52.25-14.18,75.14c-9.46,22.9-22.52,42.78-39.19,59.65-16.67,16.87-36.3,29.95-58.9,39.25-22.6,9.3-47.52,13.94-74.77,13.94ZM1526.64,445.83c12.82,0,24.76-2.4,35.82-7.23,11.06-4.82,20.67-11.79,28.85-20.91,8.17-9.12,14.58-20.05,19.23-32.79,4.64-12.73,6.97-26.85,6.97-42.35s-2.33-30.03-6.97-42.6c-4.65-12.56-11.06-23.41-19.23-32.53-8.17-9.12-17.79-16.09-28.85-20.91-11.06-4.82-23.01-7.23-35.82-7.23s-24.76,2.41-35.82,7.23c-11.06,4.83-20.67,11.8-28.85,20.91-8.17,9.13-14.59,19.97-19.23,32.53-4.65,12.57-6.97,26.77-6.97,42.6s2.32,29.61,6.97,42.35c4.64,12.74,11.06,23.67,19.23,32.79,8.17,9.13,17.79,16.1,28.85,20.91,11.06,4.83,23,7.23,35.82,7.23Z"/>
  <g>
    <polygon class="cls-4" points="411.39 436.37 494.72 530.5 92.34 530.5 92.34 436.37 411.39 436.37"/>
    <polygon class="cls-1" points="366.51 168.12 212.26 319.54 198.96 332.59 93.28 436.36 92.44 437.17 92.44 530.52 155.19 530.52 251.1 436.36 267.07 420.69 285.21 402.87 443.95 247.03 366.51 168.12"/>
    <polygon class="cls-1" points="533.37 530.5 508.27 530.5 425.2 436.41 450.36 436.41 533.37 530.5"/>
    <path class="cls-4" d="M183.98,247.43l-83.34-94.12h322.63c11.35,0,20.56,9.2,20.56,20.56v73.57H183.98Z"/>
    <polygon class="cls-1" points="62 153.31 87.1 153.31 170.16 247.39 145 247.39 62 153.31"/>
  </g>
  <rect class="cls-1" x="903.56" y="161.81" width="91.35" height="63.45"/>
  <g>
    <path class="cls-3" d="M3158.03,216.03v-52.87h-20.79v-9.86h53.23v9.86h-20.79v52.87h-11.65Z"/>
    <path class="cls-3" d="M3204.15,216.03v-62.73h9.59l27.42,45.79h-5.02l26.97-45.79h9.59l.09,62.73h-11.02l-.09-45.43h2.33l-22.94,38.26h-5.2l-23.3-38.26h2.69v45.43h-11.11Z"/>
  </g>
  <path class="cls-1" d="M3044.86,237.34v51.63c-8.95-16.18-22.55-29.6-40.79-40.27-18.25-10.67-39.76-16.01-64.54-16.01s-47.94,6.03-68.41,18.07c-20.48,12.05-36.58,29-48.28,50.86-11.71,21.86-17.56,47.24-17.56,76.16s5.85,54.04,17.56,76.42c11.7,22.38,27.7,39.76,48.02,52.15,20.31,12.39,43.02,18.59,68.16,18.59s45.86-5.42,64.28-16.26c18.41-10.84,32.27-24.52,41.56-41.05v52.67h47.5V237.34h-47.5ZM3031.95,434.32c-8.61,16.01-20.23,28.23-34.85,36.66-14.63,8.44-30.72,12.65-48.28,12.65s-33.56-4.21-48.02-12.65c-14.46-8.43-25.99-20.65-34.59-36.66-8.61-16.01-12.91-34.85-12.91-56.54s4.3-39.93,12.91-55.76c8.6-15.83,20.14-27.88,34.59-36.14,14.46-8.26,30.46-12.39,48.02-12.39s33.64,4.22,48.28,12.65c14.63,8.44,26.24,20.57,34.85,36.4,8.6,15.84,12.91,34.42,12.91,55.76s-4.31,40.02-12.91,56.02ZM1931.66,338.8c-14.46-6.37-33.56-12.82-57.31-19.36-19.62-5.5-34.85-10.41-45.69-14.72-10.84-4.3-19.97-10.58-27.37-18.85-7.41-8.26-11.1-18.93-11.1-32.01,0-18.24,6.2-32.44,18.59-42.6,12.39-10.15,28.4-15.23,48.02-15.23,20.99,0,37.86,5.25,50.6,15.75,12.73,10.5,19.96,22.64,21.69,36.4h51.63c-2.76-27.88-14.89-50.25-36.4-67.12-21.52-16.86-49.14-25.3-82.87-25.3-23.41,0-44.15,4.13-62.22,12.39-18.07,8.26-32.1,19.97-42.08,35.11-9.99,15.15-14.97,32.53-14.97,52.15,0,22.38,5.07,40.19,15.23,53.44,10.15,13.26,22.37,22.98,36.66,29.17,14.28,6.2,33.3,12.39,57.05,18.59,19.27,5.16,34.59,9.99,45.95,14.46,11.36,4.48,20.82,11.02,28.4,19.62,7.57,8.61,11.36,19.8,11.36,33.56,0,17.56-6.45,31.93-19.36,43.11-12.91,11.19-30.55,16.78-52.92,16.78s-41.23-5.76-53.44-17.3c-12.22-11.53-19.19-25.73-20.91-42.6h-50.08c.34,19.62,5.85,36.92,16.52,51.89,10.67,14.97,25.38,26.68,44.15,35.11,18.76,8.44,40.02,12.65,63.77,12.65s46.29-4.82,64.54-14.46c18.24-9.63,32.01-22.2,41.31-37.69,9.29-15.49,13.94-32.01,13.94-49.57,0-22.72-5.16-40.7-15.49-53.96-10.33-13.25-22.72-23.06-37.18-29.43ZM2221.32,250.25c-20.65-11.7-44.4-17.56-71.25-17.56s-51.89,5.94-73.06,17.81c-21.17,11.88-37.61,28.83-49.31,50.86-11.71,22.03-17.56,47.68-17.56,76.93s6.02,54.99,18.07,77.19c12.04,22.2,28.66,39.33,49.83,51.38,21.17,12.05,45.18,18.07,72.03,18.07,33.73,0,61.96-8.52,84.68-25.56,22.72-17.04,37.86-39.15,45.44-66.35h-50.6c-5.51,15.84-15.06,28.49-28.66,37.95-13.6,9.47-30.55,14.2-50.86,14.2-24.78,0-45.87-7.83-63.25-23.49-17.39-15.66-26.94-37.43-28.66-65.32h226.15c1.03-9.98,1.55-19.44,1.55-28.4,0-25.82-5.6-48.96-16.78-69.45-11.19-20.48-27.11-36.57-47.76-48.28ZM2058.68,358.16c2.4-26.85,11.96-47.84,28.66-62.99,16.69-15.14,36.92-22.72,60.67-22.72,16.52,0,31.58,3.36,45.18,10.07,13.59,6.71,24.35,16.52,32.27,29.43,7.91,12.91,11.88,28.32,11.88,46.21h-178.65ZM2715.96,245.86c-17.22-9.12-36.84-13.68-58.86-13.68s-42.69,5.51-60.93,16.52c-18.25,11.02-31.33,26.51-39.24,46.47-8.95-20.65-22.55-36.31-40.79-46.99-18.25-10.67-39.24-16.01-62.99-16.01-18.93,0-36.23,3.96-51.89,11.88-15.67,7.92-28.14,19.28-37.43,34.08v-40.79h-46.99v282.95h46.99v-155.93c0-29.6,7.23-52.23,21.69-67.9,14.46-15.66,33.9-23.49,58.35-23.49s42.6,7.49,56.54,22.46,20.91,36.58,20.91,64.8v160.06h46.47v-155.93c0-29.6,7.23-52.23,21.69-67.9,14.46-15.66,33.9-23.49,58.35-23.49s42.6,7.49,56.54,22.46c13.94,14.97,20.91,36.58,20.91,64.8v160.06h46.47v-166.77c0-26.16-4.99-48.36-14.97-66.61-9.99-18.24-23.58-31.92-40.79-41.05Z"/>
  <g>
    <path class="cls-4" d="M862.08,326.42c-.83-11.87-2.67-23.28-5.46-34.25-2.11-8.45-4.83-16.59-8.12-24.49-.05-.1-.1-.23-.13-.33-7.47-17.83-17.15-33.92-29.04-48.23-3.17-3.82-6.51-7.52-10.01-11.09-2.31-2.34-4.65-4.63-7.07-6.81-13.78-12.62-29.42-22.81-46.89-30.57-1.63-.73-3.29-1.46-4.95-2.14-6.41-2.64-13.02-4.9-19.81-6.76-17.12-4.78-35.45-7.17-54.94-7.17-26.93,0-51.77,4.65-74.53,13.93-22.75,9.3-42.54,22.48-59.39,39.53-16.82,17.02-29.9,36.91-39.17,59.64-7.44,18.13-11.89,37.72-13.38,58.74-.4,5.28-.58,10.66-.58,16.14,0,22.18,3.09,42.87,9.28,62.05.28.86.55,1.68.83,2.51,1.18,3.5,2.46,6.91,3.85,10.31.78,1.89,1.56,3.72,2.39,5.56,8.7,19.59,20.34,36.96,34.87,52.12l.83.83c.35.38.7.75,1.08,1.13,16.85,17.05,36.63,30.22,59.39,39.5,2.04.83,4.07,1.63,6.16,2.36.78.3,1.56.58,2.34.86,20.42,7.17,42.42,10.74,66.03,10.74,27.23,0,52.17-4.65,74.75-13.95,22.6-9.28,42.24-22.38,58.91-39.25,15.36-15.54,27.66-33.64,36.89-54.34.8-1.76,1.56-3.52,2.29-5.3,9.45-22.88,14.18-47.92,14.18-75.13,0-5.48-.2-10.86-.6-16.14Z"/>
    <g>
      <g>
        <path class="cls-2" d="M687.62,387.16h-31.37c-48.32,0-87.63-37.56-87.63-83.72s39.31-83.72,87.63-83.72h75.29v17.31h-75.29c-38.78,0-70.32,29.79-70.32,66.41s31.55,66.41,70.32,66.41h31.37v17.31Z"/>
        <path class="cls-2" d="M695.05,465.41h-75.29v-17.31h75.29c38.78,0,70.32-29.79,70.32-66.41s-31.55-66.41-70.32-66.41h-31.37v-17.31h31.37c48.32,0,87.63,37.56,87.63,83.72s-39.31,83.72-87.63,83.72Z"/>
      </g>
      <path class="cls-1" d="M694.26,425.97h-74.5v-17.31h74.5c15.78,0,28.62-12.84,28.62-28.62v-.41c0-15.78-12.84-28.62-28.62-28.62h-37.23c-25.32,0-45.93-20.6-45.93-45.93s20.6-45.93,45.93-45.93h74.5v17.31h-74.5c-15.78,0-28.62,12.84-28.62,28.62s12.84,28.62,28.62,28.62h37.23c25.32,0,45.93,20.6,45.93,45.93v.41c0,25.32-20.6,45.93-45.93,45.93Z"/>
    </g>
  </g>
</svg>