<?xml version="1.0" encoding="UTF-8"?>
<svg id="Layer_1" data-name="Layer 1" xmlns="http://www.w3.org/2000/svg" viewBox="0 0 1024 1024">
  <defs>
    <style>
      .cls-1 {
        fill: #2a6bdd;
      }

      .cls-2 {
        fill: #fff;
      }

      .cls-3 {
        fill: #474787;
      }
    </style>
  </defs>
  <rect class="cls-3" x="98.38" y="97.19" width="827.24" height="827.24" rx="164.23" ry="164.23"/>
  <g>
    <g>
      <path class="cls-2" d="M538.47,609.43h-69.38c-106.86,0-193.8-83.05-193.8-185.14s86.94-185.14,193.8-185.14h166.5v38.28h-166.5c-85.76,0-155.52,65.88-155.52,146.86s69.77,146.86,155.52,146.86h69.38v38.28Z"/>
      <path class="cls-2" d="M554.91,782.47h-166.5v-38.28h166.5c85.76,0,155.52-65.88,155.52-146.86s-69.77-146.86-155.52-146.86h-69.38v-38.28h69.38c106.86,0,193.8,83.05,193.8,185.14s-86.94,185.14-193.8,185.14Z"/>
    </g>
    <path class="cls-1" d="M553.16,695.25h-164.75v-38.28h164.75c34.9,0,63.29-28.39,63.29-63.29v-.9c0-34.9-28.39-63.29-63.29-63.29h-82.32c-56,0-101.57-45.56-101.57-101.57s45.56-101.57,101.57-101.57h164.75v38.28h-164.75c-34.9,0-63.29,28.39-63.29,63.29s28.39,63.29,63.29,63.29h82.32c56,0,101.57,45.56,101.57,101.57v.9c0,56-45.56,101.57-101.57,101.57Z"/>
  </g>
</svg>